<svg xmlns="http://www.w3.org/2000/svg" width="860" height="336"
     viewBox="0 0 860 336" role="img"
     aria-label="Terminal card: live GitHub statistics for maunguyengit">
  <style>
    text { font-family: ui-monospace,SFMono-Regular,'SF Mono',Menlo,Consolas,'Liberation Mono',monospace; font-size: 13px; dominant-baseline: alphabetic; }
    .cur { animation: blink 1.06s steps(1, end) infinite; }
    tspan { font-family: ui-monospace,SFMono-Regular,'SF Mono',Menlo,Consolas,'Liberation Mono',monospace; }
    @keyframes blink { 0%,50% { opacity: 1 } 50.01%,100% { opacity: 0 } }
  </style>
  <rect width="860" height="336" rx="10" fill="#0d1117"
        stroke="#30363d"/>
  <path d="M0 10a10 10 0 0 1 10-10h840a10 10 0 0 1 10 10v42H0z"
        fill="#161b22"/>
  <line x1="0" y1="52" x2="860" y2="52" stroke="#30363d"/>
  <circle cx="30" cy="26" r="6" fill="#ff5f57"/><circle cx="49" cy="26" r="6" fill="#febc2e"/><circle cx="68" cy="26" r="6" fill="#28c840"/>
  <text x="430.0" y="31" text-anchor="middle" fill="#6e7681"
        font-size="12">maunguyengit — gyroid.py</text>
  <text x="26" y="74.0" xml:space="preserve"><tspan fill="#7ee787">maunguyengit@github</tspan><tspan fill="#39c5cf">  ~</tspan><tspan fill="#6e7681">  %  </tspan><tspan fill="#79c0ff">./gyroid --explain</tspan></text><text x="44" y="103.2" fill="#d2a8ff">surface</text><text x="144" y="103.2" fill="#c9d1d9">gyroid  ·  sin x cos y + sin y cos z + sin z cos x = 0</text><text x="44" y="122.8" fill="#d2a8ff">sampler</text><text x="144" y="122.8" fill="#c9d1d9">176-step sphere tracer  ·  numpy  ·  1080x608 @ 2x SS</text><text x="44" y="142.2" fill="#d2a8ff">loop</text><text x="144" y="142.2" fill="#c9d1d9">40 frames  ·  seamless by symmetry, not by crossfade</text><text x="26" y="178.3" xml:space="preserve"><tspan fill="#7ee787">maunguyengit@github</tspan><tspan fill="#39c5cf">  ~</tspan><tspan fill="#6e7681">  %  </tspan><tspan fill="#79c0ff">gh api /users/maunguyengit</tspan></text><text x="44" y="207.6" fill="#d2a8ff">repos</text><text x="126" y="207.6" fill="#ffa657">9</text><text x="276" y="207.6" fill="#d2a8ff">stars</text><text x="358" y="207.6" fill="#ffa657">4</text><text x="508" y="207.6" fill="#d2a8ff">followers</text><text x="590" y="207.6" fill="#ffa657">0</text><text x="44" y="227.1" fill="#d2a8ff">commits</text><text x="126" y="227.1" fill="#ffa657">—</text><text x="276" y="227.1" fill="#d2a8ff">prs</text><text x="358" y="227.1" fill="#ffa657">—</text><text x="508" y="227.1" fill="#d2a8ff">lang</text><text x="590" y="227.1" fill="#ffa657">TypeScript</text><text x="44" y="264.1" fill="#d2a8ff">last 49d</text><text x="144" y="264.1" fill="#6e7681">calendar needs an authenticated token</text><text x="26" y="295.3" xml:space="preserve"><tspan fill="#7ee787">maunguyengit@github</tspan><tspan fill="#39c5cf">  ~</tspan><tspan fill="#6e7681">  %  </tspan><tspan class="cur" fill="#c9d1d9">█</tspan></text>
</svg>