<svg xmlns="http://www.w3.org/2000/svg" width="860" height="336"
     viewBox="0 0 860 336" role="img"
     aria-label="Terminal card: live GitHub statistics for maunguyengit">
  <style>
    text { font-family: ui-monospace,SFMono-Regular,'SF Mono',Menlo,Consolas,'Liberation Mono',monospace; font-size: 13px; dominant-baseline: alphabetic; }
    .cur { animation: blink 1.06s steps(1, end) infinite; }
    tspan { font-family: ui-monospace,SFMono-Regular,'SF Mono',Menlo,Consolas,'Liberation Mono',monospace; }
    @keyframes blink { 0%,50% { opacity: 1 } 50.01%,100% { opacity: 0 } }
  </style>
  <rect width="860" height="336" rx="10" fill="#ffffff"
        stroke="#d0d7de"/>
  <path d="M0 10a10 10 0 0 1 10-10h840a10 10 0 0 1 10 10v42H0z"
        fill="#f6f8fa"/>
  <line x1="0" y1="52" x2="860" y2="52" stroke="#d0d7de"/>
  <circle cx="30" cy="26" r="6" fill="#ff5f57"/><circle cx="49" cy="26" r="6" fill="#febc2e"/><circle cx="68" cy="26" r="6" fill="#28c840"/>
  <text x="430.0" y="31" text-anchor="middle" fill="#818b98"
        font-size="12">maunguyengit — gyroid.py</text>
  <text x="26" y="74.0" xml:space="preserve"><tspan fill="#1a7f37">maunguyengit@github</tspan><tspan fill="#0969da">  ~</tspan><tspan fill="#818b98">  %  </tspan><tspan fill="#0550ae">./gyroid --explain</tspan></text><text x="44" y="103.2" fill="#8250df">surface</text><text x="144" y="103.2" fill="#1f2328">gyroid  ·  sin x cos y + sin y cos z + sin z cos x = 0</text><text x="44" y="122.8" fill="#8250df">sampler</text><text x="144" y="122.8" fill="#1f2328">176-step sphere tracer  ·  numpy  ·  720x405 @ 2x SS</text><text x="44" y="142.2" fill="#8250df">loop</text><text x="144" y="142.2" fill="#1f2328">40 frames  ·  seamless by symmetry, not by crossfade</text><text x="26" y="178.3" xml:space="preserve"><tspan fill="#1a7f37">maunguyengit@github</tspan><tspan fill="#0969da">  ~</tspan><tspan fill="#818b98">  %  </tspan><tspan fill="#0550ae">gh api /users/maunguyengit</tspan></text><text x="44" y="207.6" fill="#8250df">repos</text><text x="126" y="207.6" fill="#953800">8</text><text x="276" y="207.6" fill="#8250df">stars</text><text x="358" y="207.6" fill="#953800">4</text><text x="508" y="207.6" fill="#8250df">followers</text><text x="590" y="207.6" fill="#953800">0</text><text x="44" y="227.1" fill="#8250df">commits</text><text x="126" y="227.1" fill="#953800">—</text><text x="276" y="227.1" fill="#8250df">prs</text><text x="358" y="227.1" fill="#953800">—</text><text x="508" y="227.1" fill="#8250df">lang</text><text x="590" y="227.1" fill="#953800">TypeScript</text><text x="44" y="264.1" fill="#8250df">last 49d</text><text x="144" y="264.1" fill="#818b98">calendar needs an authenticated token</text><text x="26" y="295.3" xml:space="preserve"><tspan fill="#1a7f37">maunguyengit@github</tspan><tspan fill="#0969da">  ~</tspan><tspan fill="#818b98">  %  </tspan><tspan class="cur" fill="#1f2328">█</tspan></text>
</svg>